HIERARCHY
ROOT Hips
{
  OFFSET 43.0842 91.1655 101.099
  CHANNELS 6 Xposition Yposition Zposition Zrotation Xrotation Yrotation
  JOINT LeftUpLeg
  {
    OFFSET 8.64259 1.95398 -2.38835
    CHANNELS 3 Zrotation Xrotation Yrotation
    JOINT LeftLeg
    {
      OFFSET 43.7702 0 0
      CHANNELS 3 Zrotation Xrotation Yrotation
      JOINT LeftFoot
      {
        OFFSET 40.6238 0 0
        CHANNELS 3 Zrotation Xrotation Yrotation
        JOINT LeftToeBase
        {
          OFFSET 12.7242 0 0
          CHANNELS 3 Zrotation Xrotation Yrotation
          End Site
          {
            OFFSET 0 0 0
          }
        }
      }
    }
  }
  JOINT RightUpLeg
  {
    OFFSET -8.2249 1.95398 -2.59336
    CHANNELS 3 Zrotation Xrotation Yrotation
    JOINT RightLeg
    {
      OFFSET 43.5653 0 0
      CHANNELS 3 Zrotation Xrotation Yrotation
      JOINT RightFoot
      {
        OFFSET 40.6238 0 0
        CHANNELS 3 Zrotation Xrotation Yrotation
        JOINT RightToeBase
        {
          OFFSET 12.7242 0 0
          CHANNELS 3 Zrotation Xrotation Yrotation
          End Site
          {
            OFFSET 0 0 0
          }
        }
      }
    }
  }
  JOINT Spine
  {
    OFFSET 0.165834 0.87714 6.61349
    CHANNELS 3 Zrotation Xrotation Yrotation
    JOINT Spine1
    {
      OFFSET 7.38963 1.71661e-005 0
      CHANNELS 3 Zrotation Xrotation Yrotation
      JOINT Spine2
      {
        OFFSET 11.9445 1.14441e-005 0
        CHANNELS 3 Zrotation Xrotation Yrotation
        JOINT Spine3
        {
          OFFSET 14.7254 4.19617e-005 0
          CHANNELS 3 Zrotation Xrotation Yrotation
          JOINT Spine4
          {
            OFFSET 10.9679 0 0
            CHANNELS 3 Zrotation Xrotation Yrotation
            JOINT RightShoulder
            {
              OFFSET 2.46616 -1.6653 3.69651
              CHANNELS 3 Zrotation Xrotation Yrotation
              JOINT RightArm
              {
                OFFSET 13.0012 0 0
                CHANNELS 3 Zrotation Xrotation Yrotation
                JOINT RightForeArm
                {
                  OFFSET 28.7848 1.52588e-005 0
                  CHANNELS 3 Zrotation Xrotation Yrotation
                  JOINT RightHand
                  {
                    OFFSET 26.5688 1.52588e-005 0
                    CHANNELS 3 Zrotation Xrotation Yrotation
                    End Site
                    {
                      OFFSET 0 0 0
                    }
                  }
                }
              }
            }
            JOINT LeftShoulder
            {
              OFFSET 2.38034 -1.29275 -3.7523
              CHANNELS 3 Zrotation Xrotation Yrotation
              JOINT LeftArm
              {
                OFFSET 16.3182 6.10351e-005 0
                CHANNELS 3 Zrotation Xrotation Yrotation
                JOINT LeftForeArm
                {
                  OFFSET 27.0901 0 0
                  CHANNELS 3 Zrotation Xrotation Yrotation
                  JOINT LeftHand
                  {
                    OFFSET 24.5451 1.52588e-005 0
                    CHANNELS 3 Zrotation Xrotation Yrotation
                    End Site
                    {
                      OFFSET 0 0 0
                    }
                  }
                }
              }
            }
            JOINT Neck
            {
              OFFSET 5.0226 -0.0266342 0
              CHANNELS 3 Zrotation Xrotation Yrotation
              JOINT Head
              {
                OFFSET 6.69364 2.86102e-005 0
                CHANNELS 3 Zrotation Xrotation Yrotation
                End Site
                {
                  OFFSET 0 0 0
                }
              }
            }
          }
        }
      }
    }
  }
}
MOTION
Frames:	10
Frame Time:	0.0333333
28.977 90.5016 109.239 95.4291 -40.7695 94.0662 -170.763 9.2724 98.6784 -34.5483 22.3592 -1.8192 64.4603 5.26074 18.3031 35.9252 5.66057 6.79138 171.605 16.706 82.1245 -23.8597 -0.228955 1.13141 61.8388 -0.491632 -5.96976 29.8531 -0.556279 -0.137981 0.061625 7.34606 -89.9638 12.1817 0.139671 0.0567695 0.510804 0.142018 0.0505611 -22.0244 0.116148 0.0961229 -2.01175 0.116145 0.0961173 94.8534 -47.7484 -93.6782 30.8428 49.1388 -49.2161 -8.43226 -15.0315 -97.9323 -10.5765 -1.49043 5.55067 -92.0421 -47.0601 74.9334 -14.7892 8.47152 -58.6304 12.4455 10.4388 -103.944 13.3927 1.32168 1.64032 -26.0672 -12.4315 -7.66668 3.40271 -14.1788 -12.4498 
28.9825 90.4902 109.238 95.4113 -40.7676 94.054 -170.726 9.24235 98.6972 -34.4853 22.6853 -1.84587 64.4473 5.37056 18.5122 35.9281 5.57615 6.96066 171.577 16.9093 82.0498 -24.3359 -0.743142 1.16091 61.835 -0.385099 -5.93043 30.1129 -0.685358 -0.189166 0.0709212 7.35372 -89.961 12.1664 0.159463 0.060094 0.49545 0.161933 0.053016 -22.0398 0.134021 0.105249 -2.02711 0.134016 0.105233 94.8888 -47.7567 -93.6207 31.0074 49.1882 -49.3165 -8.42128 -14.8997 -97.9811 -10.3329 -1.4074 5.67925 -91.987 -47.0414 75.0131 -14.5333 8.46281 -59.0698 12.474 10.4441 -103.684 13.2183 1.29383 1.64097 -25.875 -12.4036 -7.60712 3.25896 -14.1187 -12.5246 
29.0079 90.472 109.272 95.4119 -40.7307 94.0596 -170.757 9.14455 98.7044 -34.4668 22.9934 -1.80395 64.6091 5.80181 18.6062 35.5276 4.94184 7.10832 171.655 17.0879 81.9976 -24.8919 -1.25156 1.1114 61.8397 -0.353138 -5.71846 30.3681 -0.596219 -0.859808 0.0667866 7.38448 -89.9462 12.1048 0.158208 0.0899531 0.433894 0.162023 0.0829041 -22.1013 0.123868 0.133347 -2.08864 0.123856 0.133338 94.8618 -47.6979 -93.6725 32.0116 48.9451 -50.1675 -8.74163 -14.4035 -98.059 -9.64503 -1.18219 5.79479 -91.9849 -46.7972 74.9523 -14.4521 7.78574 -60.1161 12.243 11.5252 -102.888 13.9215 1.4101 1.58327 -25.4038 -12.4037 -7.98347 3.20684 -14.0821 -12.1806 
29.0197 90.4668 109.313 95.4484 -40.6612 94.0773 -170.76 9.11279 98.7233 -34.5077 23.0701 -1.77598 64.6043 5.80348 18.5466 35.6285 4.98332 7.29417 171.62 17.0627 82.0009 -24.9554 -1.46228 1.12882 61.7893 -0.218779 -6.05578 30.4847 -0.673762 -0.828767 0.0547676 7.40471 -89.9389 12.0644 0.137721 0.106868 0.393429 0.142318 0.100701 -22.1417 0.0992478 0.143328 -2.12907 0.0992335 0.143318 94.9769 -47.7372 -93.4832 32.5967 48.8445 -50.6824 -8.75331 -14.5377 -98.0553 -9.34638 -1.09186 5.68331 -91.6935 -46.5678 75.3418 -14.9239 7.38035 -60.3009 11.8247 12.4106 -102.969 14.5362 1.5024 1.65387 -25.1252 -12.3837 -8.0377 3.09775 -14.0302 -12.1782 
29.0385 90.4596 109.35 95.406 -40.5643 93.9973 -170.82 9.15132 98.6558 -34.529 22.7537 -1.73813 64.5383 5.64346 18.3972 35.7756 5.30789 7.06907 171.444 17.1195 81.9045 -25.0338 -1.712 1.24773 61.9193 -0.291365 -6.32567 30.3055 -0.650462 -0.602022 0.0549556 7.40109 -89.9334 12.0716 0.140761 0.117513 0.400693 0.145803 0.111204 -22.1345 0.0989372 0.15439 -2.12181 0.0989463 0.154388 94.9595 -47.9209 -93.4837 32.2976 49.1245 -50.5927 -8.52609 -14.6612 -98.0059 -9.47366 -1.13889 5.55531 -91.9578 -46.8781 75.0155 -14.5995 7.47337 -60.0907 11.5453 12.2739 -102.972 14.3666 1.4643 1.83362 -24.9846 -12.2763 -7.9986 2.95885 -13.885 -12.0634 
29.0209 90.4257 109.417 95.4543 -40.575 94.1367 -170.778 9.14304 98.8362 -34.6037 23.0939 -1.72677 64.5554 5.62991 18.5351 35.8476 5.35761 7.16471 171.511 17.0633 82.07 -25.0688 -1.45823 1.2163 62.0349 -0.400727 -6.58357 30.2338 -0.751851 -0.192482 0.0631113 7.39922 -89.9339 12.0754 0.156697 0.114626 0.40441 0.161613 0.107601 -22.1307 0.115008 0.15642 -2.1181 0.115025 0.15642 95.0866 -48.0972 -93.2564 31.9117 48.7858 -50.2055 -8.34853 -14.5218 -98.2253 -9.82566 -1.25367 5.50056 -91.569 -46.7064 75.5699 -14.2914 7.8542 -60.2802 12.6818 11.879 -103.293 14.9634 1.50461 2.68129 -25.1577 -12.2906 -8.3843 3.21963 -13.9507 -11.7335 
29.0311 90.423 109.459 95.5436 -40.5751 94.1617 -170.737 9.05973 98.8189 -34.655 22.8984 -1.70607 64.7183 5.99211 18.4734 35.5852 4.90901 7.31986 171.455 17.1508 82.0246 -25.3968 -1.42692 1.23114 62.0493 -0.437972 -6.32219 30.4443 -0.831077 -0.308088 0.0807937 7.3832 -89.9373 12.1074 0.190286 0.104144 0.43648 0.194692 0.0956631 -22.0987 0.15019 0.156517 -2.08607 0.150183 0.156514 95.1723 -48.1623 -93.1114 31.3943 48.7717 -49.7902 -8.25116 -14.45 -98.4344 -9.79639 -1.23744 5.64565 -91.7255 -46.8049 75.3539 -14.3541 8.00092 -59.9311 12.207 11.8275 -103.329 14.6242 1.46314 2.45591 -25.4697 -12.2724 -8.40378 3.33805 -13.9722 -11.7021 
29.0694 90.4062 109.48 95.5053 -40.42 94.0479 -170.802 9.06753 98.7241 -34.6469 22.8773 -1.67948 64.6247 5.80068 18.4466 35.7421 5.26422 7.06351 171.346 17.1949 81.9093 -25.5494 -2.036 1.26106 62.0799 -0.414913 -6.56642 30.6735 -0.73004 -0.977647 0.0729968 7.38648 -89.9206 12.1008 0.182725 0.138432 0.429872 0.188646 0.130247 -22.1053 0.132672 0.186947 -2.09264 0.132674 0.186943 95.118 -48.3776 -93.1666 31.5079 49.0349 -50.1608 -8.35392 -14.5798 -98.5643 -9.52134 -1.13763 5.8949 -91.9014 -46.8212 75.0872 -14.4412 7.89276 -59.8081 11.8447 12.0212 -103.272 14.2957 1.43113 2.13067 -25.4222 -12.2984 -8.63046 3.38744 -14.0042 -11.4974 
29.0665 90.3718 109.525 95.5189 -40.4926 94.0396 -170.796 9.07569 98.7461 -34.7444 22.7607 -1.66327 64.6725 5.84946 18.3491 35.8576 5.42781 7.05795 171.328 17.2929 81.926 -25.7212 -1.76504 1.24462 62.13 -0.530487 -6.44472 30.6932 -0.828039 -0.725616 0.0823681 7.38741 -89.9104 12.0989 0.206101 0.156049 0.427956 0.21275 0.146818 -22.1072 0.149666 0.21077 -2.09455 0.14967 0.210771 95.0245 -48.3842 -93.3134 31.7043 48.9832 -50.3349 -8.269 -14.703 -98.7278 -9.68943 -1.17764 6.18629 -91.8369 -46.6761 75.1486 -14.5006 7.98166 -59.7489 12.1934 11.8349 -103.305 14.0167 1.38389 2.15587 -25.6148 -12.2779 -8.78243 3.55172 -14.0329 -11.54 
29.09 90.3545 109.584 95.5966 -40.3695 94.1083 -170.828 8.98579 98.7686 -34.7841 22.6629 -1.56336 64.7513 5.98 18.1037 35.8291 5.35222 7.12629 171.281 17.3668 81.9408 -26.091 -1.31079 1.24106 62.1402 -0.624591 -6.09455 30.8097 -0.928938 -0.623731 0.0845357 7.37032 -89.922 12.1331 0.204994 0.133053 0.462168 0.21066 0.123893 -22.073 0.155525 0.188505 -2.06037 0.155535 0.188513 95.1604 -48.663 -93.0593 30.9102 48.7603 -50.03 -8.02408 -14.6492 -98.5745 -9.52098 -1.12465 6.15326 -91.6049 -46.4196 75.4402 -14.9142 8.15562 -59.5388 12.0278 12.008 -103.6 14.0681 1.36355 2.55596 -26.0003 -12.2241 -8.95751 3.81402 -14.0432 -11.3587 
